<?xml version="1.0" encoding="UTF-8" standalone="no"?>
<svg
   xmlns:dc="http://purl.org/dc/elements/1.1/"
   xmlns:cc="http://creativecommons.org/ns#"
   xmlns:rdf="http://www.w3.org/1999/02/22-rdf-syntax-ns#"
   xmlns:svg="http://www.w3.org/2000/svg"
   xmlns="http://www.w3.org/2000/svg"
   xmlns:sodipodi="http://sodipodi.sourceforge.net/DTD/sodipodi-0.dtd"
   xmlns:inkscape="http://www.inkscape.org/namespaces/inkscape"
   width="64.0px"
   height="64.0px"
   viewBox="0 0 64.0 64.0"
   version="1.1"
   id="SVGRoot"
   sodipodi:docname="star.svg"
   inkscape:version="1.0.1 (3bc2e813f5, 2020-09-07)">
  <defs
     id="defs874" />
  <sodipodi:namedview
     id="base"
     pagecolor="#ffffff"
     bordercolor="#666666"
     borderopacity="1.0"
     inkscape:pageopacity="0.0"
     inkscape:pageshadow="2"
     inkscape:zoom="6.8601533"
     inkscape:cx="41.254471"
     inkscape:cy="43.25893"
     inkscape:document-units="px"
     inkscape:current-layer="layer1"
     inkscape:document-rotation="0"
     showgrid="true"
     inkscape:window-width="1254"
     inkscape:window-height="1009"
     inkscape:window-x="182"
     inkscape:window-y="0"
     inkscape:window-maximized="0"
     inkscape:snap-object-midpoints="false"
     inkscape:snap-others="false"
     inkscape:object-nodes="false">
    <inkscape:grid
       type="xygrid"
       id="grid1444" />
  </sodipodi:namedview>
  <metadata
     id="metadata877">
    <rdf:RDF>
      <cc:Work
         rdf:about="">
        <dc:format>image/svg+xml</dc:format>
        <dc:type
           rdf:resource="http://purl.org/dc/dcmitype/StillImage" />
        <dc:title></dc:title>
      </cc:Work>
    </rdf:RDF>
  </metadata>
  <g
     inkscape:label="Ebene 1"
     inkscape:groupmode="layer"
     id="layer1">
    <path
       sodipodi:type="star"
       style="fill:#ffd42a;stroke:#000000;stroke-width:2.85789;stroke-linecap:square;stroke-miterlimit:4;stroke-dasharray:none;stroke-dashoffset:3.77001"
       id="path1451"
       sodipodi:sides="8"
       sodipodi:cx="0"
       sodipodi:cy="0"
       sodipodi:r1="29.281193"
       sodipodi:r2="19.911207"
       sodipodi:arg1="0.78539816"
       sodipodi:arg2="1.1780972"
       inkscape:flatsided="false"
       inkscape:rounded="0.14"
       inkscape:randomized="2.08167e-17"
       d="M 20.70493,20.70493 C 19.389538,22.020322 9.3383323,17.683671 7.6196899,18.395556 5.9010474,19.107441 1.8602453,29.281193 9.948134e-8,29.281193 -1.8602449,29.281193 -5.901046,19.107442 -7.6196883,18.395557 -9.3383308,17.683672 -19.389538,22.020322 -20.70493,20.70493 -22.020322,19.389538 -17.683671,9.3383323 -18.395556,7.6196899 -19.107441,5.9010474 -29.281193,1.8602453 -29.281193,9.948135e-8 -29.281193,-1.8602449 -19.107442,-5.901046 -18.395557,-7.6196883 c 0.711885,-1.7186425 -3.624765,-11.7698497 -2.309373,-13.0852417 1.315392,-1.315392 11.3665977,3.021259 13.0852401,2.309374 C -5.9010474,-19.107441 -1.8602453,-29.281193 -9.9481351e-8,-29.281193 1.8602449,-29.281193 5.901046,-19.107442 7.6196883,-18.395557 9.3383308,-17.683672 19.389538,-22.020322 20.70493,-20.70493 22.020322,-19.389538 17.683671,-9.3383323 18.395556,-7.6196899 19.107441,-5.9010474 29.281193,-1.8602453 29.281193,-9.9481352e-8 29.281193,1.8602449 19.107442,5.901046 18.395557,7.6196883 17.683672,9.3383308 22.020322,19.389538 20.70493,20.70493 Z"
       inkscape:transform-center-x="-0.43546436"
       inkscape:transform-center-y="0.43546416"
       transform="translate(31.627379,32.545838)" />
  </g>
</svg>
